<?xml version="1.0" encoding="utf-8"?>
<!-- Generator: Adobe Illustrator 27.0.0, SVG Export Plug-In . SVG Version: 6.00 Build 0)  -->
<svg version="1.1" xmlns="http://www.w3.org/2000/svg" xmlns:xlink="http://www.w3.org/1999/xlink" x="0px" y="0px"
	 viewBox="0 0 1000 1000" style="enable-background:new 0 0 1000 1000;" xml:space="preserve">
<style type="text/css">
	.st0{fill:url(#SVGID_1_);}
	.st1{fill:url(#SVGID_00000026145401306433599780000012912999838826240657_);}
	.st2{fill:url(#SVGID_00000098900515800492306790000000360340718410350216_);}
	
		.st3{fill:none;stroke:url(#SVGID_00000049919468401780855490000011777870637095698835_);stroke-width:7;stroke-linecap:round;stroke-linejoin:round;stroke-miterlimit:10;}
	
		.st4{fill:none;stroke:url(#SVGID_00000034798589528182263030000017102123086020433563_);stroke-width:7;stroke-linecap:round;stroke-linejoin:round;stroke-miterlimit:10;}
	
		.st5{fill:none;stroke:url(#SVGID_00000023981421080155192070000012650689546659931807_);stroke-width:7;stroke-linecap:round;stroke-linejoin:round;stroke-miterlimit:10;}
	
		.st6{fill:none;stroke:url(#SVGID_00000024695350822794459780000016171797834169193364_);stroke-width:7;stroke-linecap:round;stroke-linejoin:round;stroke-miterlimit:10;}
	
		.st7{fill:none;stroke:url(#SVGID_00000082345163615948849310000006840374773954700936_);stroke-width:7;stroke-linecap:round;stroke-linejoin:round;stroke-miterlimit:10;}
	.st8{fill:url(#SVGID_00000005987178768164093280000003318421968264511923_);}
	.st9{fill:url(#SVGID_00000163789805839332404640000007036780566180546182_);}
	.st10{fill:url(#SVGID_00000182516674706767791650000000188665791158207873_);}
	.st11{fill:url(#SVGID_00000086654324012256568600000005847915608388297150_);}
	.st12{fill:url(#SVGID_00000062173154971855683290000013581248917707960708_);}
	.st13{fill:url(#SVGID_00000091709176692060578150000005706096330633721534_);}
	.st14{fill:url(#SVGID_00000123432860001238133860000000098871655782400387_);}
	.st15{fill:url(#SVGID_00000142870667439878320500000016832440250758450313_);}
	.st16{fill:url(#SVGID_00000115503042083782099250000010946963778400594877_);}
	.st17{fill:url(#SVGID_00000090291632052889790080000003206041914523103876_);}
	.st18{fill:url(#SVGID_00000039822557491109225820000007828796054521388206_);}
	.st19{fill:url(#SVGID_00000033369850184952374310000012516970388770597559_);}
	.st20{fill:#0066BF;}
	.st21{fill:none;}
</style>
<g id="BACKGROUND">
</g>
<g id="OBJECTS">
	<linearGradient id="SVGID_1_" gradientUnits="userSpaceOnUse" x1="350.0418" y1="1038.8951" x2="240.4865" y2="6.278">
		<stop  offset="0" style="stop-color:#0061C2"/>
		<stop  offset="0.1889" style="stop-color:#0574CA"/>
		<stop  offset="0.5702" style="stop-color:#11A4DF"/>
		<stop  offset="1" style="stop-color:#20E1FA"/>
	</linearGradient>
	<path class="st0" d="M337.6,593.9c0,19.2-15.6,34.8-34.8,34.8s-34.8-15.6-34.8-34.8c0-19.2,15.6-34.8,34.8-34.8
		S337.6,574.7,337.6,593.9z"/>
	
		<linearGradient id="SVGID_00000154404684571279484950000010524338939188020379_" gradientUnits="userSpaceOnUse" x1="326.3463" y1="1022.6149" x2="221.3675" y2="33.1339">
		<stop  offset="0" style="stop-color:#0066BF"/>
		<stop  offset="0.1954" style="stop-color:#0579C8"/>
		<stop  offset="0.59" style="stop-color:#11A9DF"/>
		<stop  offset="1" style="stop-color:#20E1FA"/>
	</linearGradient>
	<path style="fill:url(#SVGID_00000154404684571279484950000010524338939188020379_);" d="M410.5,72.1
		c-69.6,0-130.1,38.6-161.4,95.6l88.2,67.5c1.8-0.4,3.8-0.6,5.7-0.6c15.3,0,27.7,12.4,27.7,27.7c0,15.3-12.4,27.7-27.7,27.7
		c-15.3,0-27.7-12.4-27.7-27.7c0-9.2,4.5-17.3,11.4-22.4l-9.7-7.7l0,0L240.9,174c-47.2,12.6-81.9,55.6-81.9,106.7
		c0,3.1,0.1,6.1,0.4,9.1l128.2,77.4c10.3-14.4,27.2-23.8,46.2-23.8c31.4,0,56.9,25.5,56.9,56.9c0,31.4-25.5,56.9-56.9,56.9
		S277,431.7,277,400.3c0-8.8,2-17.1,5.5-24.5c0,0,0-0.1,0.1-0.1L242,351.4l-83.2-49.9c-25.4,8-48.5,21.4-67.8,38.8l112.8,68.1
		c3.2-1.3,6.7-2,10.4-2c15.3,0,27.7,12.4,27.7,27.7c0,15.3-12.4,27.7-27.7,27.7c-15.3,0-27.7-12.4-27.7-27.7
		c0-7.6,3.1-14.5,8.1-19.5L83.5,347.4c-33,33.3-53.4,79-53.4,129.6c0,74.2,43.9,138,107,167.2l118.4-47.1c-0.1-1-0.1-2.1-0.1-3.2
		c0-26.1,21.2-47.4,47.4-47.4s47.4,21.2,47.4,47.4c0,26.1-21.2,47.4-47.4,47.4c-21.5,0-39.8-14.4-45.5-34.1l-116.9,46.5
		c-7.8,15.1-12.2,32.2-12.2,50.4c0,50.9,34.5,93.8,81.4,106.5l114.7-94.2c-1.8-3.7-2.9-7.9-2.9-12.3c0-15.3,12.4-27.7,27.7-27.7
		c15.3,0,27.7,12.4,27.7,27.7c0,15.3-12.4,27.7-27.7,27.7c-7.3,0-13.9-2.8-18.8-7.4l-112.2,92.2c31.2,57.2,91.9,96.1,161.7,96.1
		c31,0,60.2-7.7,85.9-21.3V80.5C448.3,75,429.8,72.1,410.5,72.1z"/>
	
		<linearGradient id="SVGID_00000122000234307596227180000006694623582397424805_" gradientUnits="userSpaceOnUse" x1="401.6599" y1="1039.5389" x2="292.4723" y2="10.3877">
		<stop  offset="0" style="stop-color:#0061C2"/>
		<stop  offset="0.1889" style="stop-color:#0574CA"/>
		<stop  offset="0.5702" style="stop-color:#11A4DF"/>
		<stop  offset="1" style="stop-color:#20E1FA"/>
	</linearGradient>
	<path style="fill:url(#SVGID_00000122000234307596227180000006694623582397424805_);" d="M378.4,400.3c0,24.6-20,44.6-44.6,44.6
		s-44.6-20-44.6-44.6c0-24.6,20-44.6,44.6-44.6S378.4,375.7,378.4,400.3z"/>
	
		<linearGradient id="SVGID_00000144315525659236648540000001563314603666627754_" gradientUnits="userSpaceOnUse" x1="743.9028" y1="898.4603" x2="678.6917" y2="57.2429">
		<stop  offset="0" style="stop-color:#0D50A0"/>
		<stop  offset="1" style="stop-color:#1C2362"/>
	</linearGradient>
	
		<path style="fill:none;stroke:url(#SVGID_00000144315525659236648540000001563314603666627754_);stroke-width:7;stroke-linecap:round;stroke-linejoin:round;stroke-miterlimit:10;" d="
		M565.8,908.2c71.6,0,133.6-40.9,164-100.6c50-10.5,87.5-54.9,87.5-108c0-6.9-0.7-13.6-1.9-20.2c75.6-22.9,130.7-93.1,130.7-176.2
		c0-76.8-47.1-142.6-113.9-170.2c10-16.6,15.7-36,15.7-56.8c0-53.1-37.5-97.5-87.5-108C730,108.6,668,67.7,596.5,67.7
		c-31,0-60.2,7.7-85.9,21.3v192.9v132.6v134v194.5v156.7C528,905.2,546.5,908.2,565.8,908.2z"/>
	
		<linearGradient id="SVGID_00000154388727889392820830000006566862183581853610_" gradientUnits="userSpaceOnUse" x1="639.0114" y1="893.3116" x2="575.9928" y2="80.3771">
		<stop  offset="0" style="stop-color:#0D50A0"/>
		<stop  offset="1" style="stop-color:#1C2362"/>
	</linearGradient>
	
		<polyline style="fill:none;stroke:url(#SVGID_00000154388727889392820830000006566862183581853610_);stroke-width:7;stroke-linecap:round;stroke-linejoin:round;stroke-miterlimit:10;" points="
		510.6,89 735.7,477 510.6,899.8 	"/>
	
		<linearGradient id="SVGID_00000059298454946126067250000005188710322518073518_" gradientUnits="userSpaceOnUse" x1="745.1456" y1="688.412" x2="704.8839" y2="169.0388">
		<stop  offset="0" style="stop-color:#0D50A0"/>
		<stop  offset="1" style="stop-color:#1C2362"/>
	</linearGradient>
	
		<polyline style="fill:none;stroke:url(#SVGID_00000059298454946126067250000005188710322518073518_);stroke-width:7;stroke-linecap:round;stroke-linejoin:round;stroke-miterlimit:10;" points="
		832.3,333.1 735.7,470.9 946.2,503.3 815.4,679.5 514.8,495.4 760.5,168.2 	"/>
	
		<linearGradient id="SVGID_00000054981013409469466340000006248045028845208980_" gradientUnits="userSpaceOnUse" x1="635.2463" y1="818.4827" x2="609.3607" y2="484.5598">
		<stop  offset="0" style="stop-color:#0D50A0"/>
		<stop  offset="1" style="stop-color:#1C2362"/>
	</linearGradient>
	
		<polyline style="fill:none;stroke:url(#SVGID_00000054981013409469466340000006248045028845208980_);stroke-width:7;stroke-linecap:round;stroke-linejoin:round;stroke-miterlimit:10;" points="
		729.8,807.6 619.1,716.3 514.8,495.4 	"/>
	
		<linearGradient id="SVGID_00000171000091555190221420000001423041288755347344_" gradientUnits="userSpaceOnUse" x1="760.8013" y1="887.3738" x2="698.4561" y2="83.1273">
		<stop  offset="0" style="stop-color:#0D50A0"/>
		<stop  offset="1" style="stop-color:#1C2362"/>
	</linearGradient>
	
		<polyline style="fill:none;stroke:url(#SVGID_00000171000091555190221420000001423041288755347344_);stroke-width:7;stroke-linecap:round;stroke-linejoin:round;stroke-miterlimit:10;" points="
		548.6,900.3 735.7,814.4 813.4,679.5 944.3,503.6 827.7,372 741.8,175.6 530.2,99.7 	"/>
	<g>
		
			<linearGradient id="SVGID_00000059285661742894334430000018218083712473142167_" gradientUnits="userSpaceOnUse" x1="1174.7762" y1="233.1546" x2="-44.766" y2="-18.1248">
			<stop  offset="0" style="stop-color:#0F5EBA"/>
			<stop  offset="1" style="stop-color:#1099C7"/>
		</linearGradient>
		<path style="fill:url(#SVGID_00000059285661742894334430000018218083712473142167_);" d="M560.7,99.7c0,18.6-15.1,33.7-33.7,33.7
			c-18.6,0-33.7-15.1-33.7-33.7c0-18.6,15.1-33.7,33.7-33.7C545.6,65.9,560.7,81,560.7,99.7z"/>
		
			<linearGradient id="SVGID_00000101072448520376321820000002004874607213248147_" gradientUnits="userSpaceOnUse" x1="1111.6062" y1="539.7395" x2="-107.936" y2="288.4602">
			<stop  offset="0" style="stop-color:#0F5EBA"/>
			<stop  offset="1" style="stop-color:#1099C7"/>
		</linearGradient>
		<path style="fill:url(#SVGID_00000101072448520376321820000002004874607213248147_);" d="M969.8,503.6c0,18.6-15.1,33.7-33.7,33.7
			c-18.6,0-33.7-15.1-33.7-33.7c0-18.6,15.1-33.7,33.7-33.7C954.7,469.8,969.8,484.9,969.8,503.6z"/>
		
			<linearGradient id="SVGID_00000057840957142796457040000000990418723688484279_" gradientUnits="userSpaceOnUse" x1="1056.5387" y1="807.0007" x2="-163.0036" y2="555.7214">
			<stop  offset="0" style="stop-color:#0F5EBA"/>
			<stop  offset="1" style="stop-color:#1099C7"/>
		</linearGradient>
		<path style="fill:url(#SVGID_00000057840957142796457040000000990418723688484279_);" d="M642.1,716.7c0,13.2-10.7,23.8-23.8,23.8
			c-13.2,0-23.8-10.7-23.8-23.8c0-13.1,10.7-23.8,23.8-23.8C631.4,692.9,642.1,703.6,642.1,716.7z"/>
		
			<linearGradient id="SVGID_00000146460841832781989110000017059608604175655095_" gradientUnits="userSpaceOnUse" x1="1042.0049" y1="877.5382" x2="-177.5374" y2="626.2589">
			<stop  offset="0" style="stop-color:#0F5EBA"/>
			<stop  offset="1" style="stop-color:#1099C7"/>
		</linearGradient>
		<path style="fill:url(#SVGID_00000146460841832781989110000017059608604175655095_);" d="M759.5,814.4c0,13.1-10.7,23.8-23.8,23.8
			c-13.2,0-23.8-10.7-23.8-23.8c0-13.2,10.7-23.8,23.8-23.8C748.8,790.6,759.5,801.3,759.5,814.4z"/>
		
			<linearGradient id="SVGID_00000021091819800155087570000005172124498189643450_" gradientUnits="userSpaceOnUse" x1="1082.6569" y1="680.2407" x2="-136.8854" y2="428.9614">
			<stop  offset="0" style="stop-color:#0F5EBA"/>
			<stop  offset="1" style="stop-color:#1099C7"/>
		</linearGradient>
		<circle style="fill:url(#SVGID_00000021091819800155087570000005172124498189643450_);" cx="676.4" cy="596.5" r="23.8"/>
		
			<linearGradient id="SVGID_00000134209391158738891040000013551947171391114141_" gradientUnits="userSpaceOnUse" x1="1134.5586" y1="428.3443" x2="-84.9837" y2="177.065">
			<stop  offset="0" style="stop-color:#0F5EBA"/>
			<stop  offset="1" style="stop-color:#1099C7"/>
		</linearGradient>
		<path style="fill:url(#SVGID_00000134209391158738891040000013551947171391114141_);" d="M664.5,326.6c0,13.1-10.7,23.8-23.8,23.8
			c-13.1,0-23.8-10.7-23.8-23.8c0-13.2,10.7-23.8,23.8-23.8C653.8,302.8,664.5,313.4,664.5,326.6z"/>
		
			<linearGradient id="SVGID_00000082335176275957909140000010944837047592760213_" gradientUnits="userSpaceOnUse" x1="1169.266" y1="259.8974" x2="-50.2762" y2="8.6181">
			<stop  offset="0" style="stop-color:#0F5EBA"/>
			<stop  offset="1" style="stop-color:#1099C7"/>
		</linearGradient>
		<path style="fill:url(#SVGID_00000082335176275957909140000010944837047592760213_);" d="M768.8,172.5c0,13.2-10.7,23.8-23.8,23.8
			c-13.1,0-23.8-10.7-23.8-23.8c0-13.1,10.7-23.8,23.8-23.8C758.1,148.7,768.8,159.3,768.8,172.5z"/>
		
			<linearGradient id="SVGID_00000077319007335623950870000007183000976451647145_" gradientUnits="userSpaceOnUse" x1="1137.9119" y1="412.0697" x2="-81.6304" y2="160.7903">
			<stop  offset="0" style="stop-color:#0F5EBA"/>
			<stop  offset="1" style="stop-color:#1099C7"/>
		</linearGradient>
		<path style="fill:url(#SVGID_00000077319007335623950870000007183000976451647145_);" d="M851.5,348.2c0,13.1-10.7,23.8-23.8,23.8
			c-13.2,0-23.8-10.7-23.8-23.8c0-13.2,10.7-23.8,23.8-23.8C840.9,324.3,851.5,335,851.5,348.2z"/>
		
			<linearGradient id="SVGID_00000150104957096202298300000017245159482477746831_" gradientUnits="userSpaceOnUse" x1="1109.5743" y1="549.6013" x2="-109.968" y2="298.322">
			<stop  offset="0" style="stop-color:#0F5EBA"/>
			<stop  offset="1" style="stop-color:#1099C7"/>
		</linearGradient>
		<path style="fill:url(#SVGID_00000150104957096202298300000017245159482477746831_);" d="M765.6,473.8c0,13.1-10.7,23.8-23.8,23.8
			c-13.1,0-23.8-10.7-23.8-23.8c0-13.2,10.7-23.8,23.8-23.8C755,450,765.6,460.7,765.6,473.8z"/>
		
			<linearGradient id="SVGID_00000122722104449751152460000004427371549005614468_" gradientUnits="userSpaceOnUse" x1="1072.1804" y1="731.0862" x2="-147.3618" y2="479.8069">
			<stop  offset="0" style="stop-color:#0F5EBA"/>
			<stop  offset="1" style="stop-color:#1099C7"/>
		</linearGradient>
		<circle style="fill:url(#SVGID_00000122722104449751152460000004427371549005614468_);" cx="821.6" cy="679.5" r="23.8"/>
		
			<linearGradient id="SVGID_00000094595536525774096820000013149328320781894557_" gradientUnits="userSpaceOnUse" x1="1016.0334" y1="1003.5863" x2="-203.5088" y2="752.3069">
			<stop  offset="0" style="stop-color:#0F5EBA"/>
			<stop  offset="1" style="stop-color:#1099C7"/>
		</linearGradient>
		<path style="fill:url(#SVGID_00000094595536525774096820000013149328320781894557_);" d="M548.6,900.3c0,18.6-15.1,33.7-33.7,33.7
			c-18.6,0-33.7-15.1-33.7-33.7c0-18.6,15.1-33.7,33.7-33.7C533.5,866.6,548.6,881.7,548.6,900.3z"/>
		
			<linearGradient id="SVGID_00000109738268243568229710000011541371336828317883_" gradientUnits="userSpaceOnUse" x1="1097.5289" y1="608.0616" x2="-122.0134" y2="356.7823">
			<stop  offset="0" style="stop-color:#0F5EBA"/>
			<stop  offset="1" style="stop-color:#1099C7"/>
		</linearGradient>
		<circle style="fill:url(#SVGID_00000109738268243568229710000011541371336828317883_);" cx="521" cy="489.3" r="33.7"/>
	</g>
	<g>
		<path class="st20" d="M282.6,375.7c0,0,0,0.1-0.1,0.1L242,351.4L282.6,375.7z"/>
	</g>
	<g>
		<line class="st21" x1="194.6" y1="414.5" x2="83.5" y2="347.4"/>
		<line class="st21" x1="203.8" y1="408.4" x2="91.1" y2="340.3"/>
	</g>
</g>
</svg>
